<mxfile host="app.diagrams.net" agent="Mozilla/5.0 (Macintosh; Intel Mac OS X 10.15; rv:136.0) Gecko/20100101 Firefox/136.0" version="26.0.16">
  <diagram name="Страница — 1" id="ICFpaHcOcoHogkfdbQnj">
    <mxGraphModel dx="721" dy="524" grid="1" gridSize="10" guides="1" tooltips="1" connect="1" arrows="1" fold="1" page="1" pageScale="1" pageWidth="827" pageHeight="1169" math="0" shadow="0">
      <root>
        <mxCell id="0" />
        <mxCell id="1" parent="0" />
        <mxCell id="AFnphyHwQlmlIxG2m7yG-260" value="S1" style="ellipse;whiteSpace=wrap;html=1;aspect=fixed;" vertex="1" parent="1">
          <mxGeometry x="445" y="85" width="40" height="40" as="geometry" />
        </mxCell>
        <mxCell id="AFnphyHwQlmlIxG2m7yG-11" style="edgeStyle=orthogonalEdgeStyle;rounded=0;orthogonalLoop=1;jettySize=auto;html=1;entryX=0;entryY=0.5;entryDx=0;entryDy=0;" edge="1" parent="1" target="AFnphyHwQlmlIxG2m7yG-2">
          <mxGeometry relative="1" as="geometry">
            <mxPoint x="55" y="40" as="sourcePoint" />
            <Array as="points">
              <mxPoint x="55" y="105" />
            </Array>
          </mxGeometry>
        </mxCell>
        <mxCell id="AFnphyHwQlmlIxG2m7yG-30" value="a" style="edgeLabel;html=1;align=center;verticalAlign=middle;resizable=0;points=[];" vertex="1" connectable="0" parent="AFnphyHwQlmlIxG2m7yG-11">
          <mxGeometry x="0.4778" y="1" relative="1" as="geometry">
            <mxPoint as="offset" />
          </mxGeometry>
        </mxCell>
        <mxCell id="AFnphyHwQlmlIxG2m7yG-12" style="edgeStyle=orthogonalEdgeStyle;rounded=0;orthogonalLoop=1;jettySize=auto;html=1;entryX=0;entryY=0.5;entryDx=0;entryDy=0;" edge="1" parent="1" source="AFnphyHwQlmlIxG2m7yG-1" target="AFnphyHwQlmlIxG2m7yG-3">
          <mxGeometry relative="1" as="geometry">
            <Array as="points">
              <mxPoint x="55" y="155" />
            </Array>
          </mxGeometry>
        </mxCell>
        <mxCell id="AFnphyHwQlmlIxG2m7yG-31" value="b" style="edgeLabel;html=1;align=center;verticalAlign=middle;resizable=0;points=[];" vertex="1" connectable="0" parent="AFnphyHwQlmlIxG2m7yG-12">
          <mxGeometry x="0.6711" y="-2" relative="1" as="geometry">
            <mxPoint as="offset" />
          </mxGeometry>
        </mxCell>
        <mxCell id="AFnphyHwQlmlIxG2m7yG-23" style="edgeStyle=orthogonalEdgeStyle;rounded=0;orthogonalLoop=1;jettySize=auto;html=1;entryX=0;entryY=0.5;entryDx=0;entryDy=0;" edge="1" parent="1" source="AFnphyHwQlmlIxG2m7yG-1" target="AFnphyHwQlmlIxG2m7yG-4">
          <mxGeometry relative="1" as="geometry">
            <Array as="points">
              <mxPoint x="55" y="255" />
            </Array>
          </mxGeometry>
        </mxCell>
        <mxCell id="AFnphyHwQlmlIxG2m7yG-32" value="c" style="edgeLabel;html=1;align=center;verticalAlign=middle;resizable=0;points=[];" vertex="1" connectable="0" parent="AFnphyHwQlmlIxG2m7yG-23">
          <mxGeometry x="0.7578" y="-2" relative="1" as="geometry">
            <mxPoint as="offset" />
          </mxGeometry>
        </mxCell>
        <mxCell id="AFnphyHwQlmlIxG2m7yG-24" style="edgeStyle=orthogonalEdgeStyle;rounded=0;orthogonalLoop=1;jettySize=auto;html=1;entryX=0;entryY=0.5;entryDx=0;entryDy=0;" edge="1" parent="1" source="AFnphyHwQlmlIxG2m7yG-1" target="AFnphyHwQlmlIxG2m7yG-5">
          <mxGeometry relative="1" as="geometry">
            <Array as="points">
              <mxPoint x="55" y="405" />
            </Array>
          </mxGeometry>
        </mxCell>
        <mxCell id="AFnphyHwQlmlIxG2m7yG-33" value="d" style="edgeLabel;html=1;align=center;verticalAlign=middle;resizable=0;points=[];" vertex="1" connectable="0" parent="AFnphyHwQlmlIxG2m7yG-24">
          <mxGeometry x="0.8134" relative="1" as="geometry">
            <mxPoint as="offset" />
          </mxGeometry>
        </mxCell>
        <mxCell id="AFnphyHwQlmlIxG2m7yG-34" style="edgeStyle=orthogonalEdgeStyle;rounded=0;orthogonalLoop=1;jettySize=auto;html=1;entryX=0;entryY=0.5;entryDx=0;entryDy=0;" edge="1" parent="1" source="AFnphyHwQlmlIxG2m7yG-1" target="AFnphyHwQlmlIxG2m7yG-6">
          <mxGeometry relative="1" as="geometry">
            <Array as="points">
              <mxPoint x="55" y="505" />
            </Array>
          </mxGeometry>
        </mxCell>
        <mxCell id="AFnphyHwQlmlIxG2m7yG-35" value="e" style="edgeLabel;html=1;align=center;verticalAlign=middle;resizable=0;points=[];" vertex="1" connectable="0" parent="AFnphyHwQlmlIxG2m7yG-34">
          <mxGeometry x="0.8544" relative="1" as="geometry">
            <mxPoint as="offset" />
          </mxGeometry>
        </mxCell>
        <mxCell id="AFnphyHwQlmlIxG2m7yG-36" style="edgeStyle=orthogonalEdgeStyle;rounded=0;orthogonalLoop=1;jettySize=auto;html=1;entryX=0;entryY=0.5;entryDx=0;entryDy=0;" edge="1" parent="1" source="AFnphyHwQlmlIxG2m7yG-1" target="AFnphyHwQlmlIxG2m7yG-7">
          <mxGeometry relative="1" as="geometry">
            <Array as="points">
              <mxPoint x="55" y="555" />
            </Array>
          </mxGeometry>
        </mxCell>
        <mxCell id="AFnphyHwQlmlIxG2m7yG-37" value="f" style="edgeLabel;html=1;align=center;verticalAlign=middle;resizable=0;points=[];" vertex="1" connectable="0" parent="AFnphyHwQlmlIxG2m7yG-36">
          <mxGeometry x="0.8808" relative="1" as="geometry">
            <mxPoint as="offset" />
          </mxGeometry>
        </mxCell>
        <mxCell id="AFnphyHwQlmlIxG2m7yG-38" style="edgeStyle=orthogonalEdgeStyle;rounded=0;orthogonalLoop=1;jettySize=auto;html=1;entryX=0;entryY=0.5;entryDx=0;entryDy=0;" edge="1" parent="1" source="AFnphyHwQlmlIxG2m7yG-1" target="AFnphyHwQlmlIxG2m7yG-8">
          <mxGeometry relative="1" as="geometry">
            <Array as="points">
              <mxPoint x="55" y="665" />
            </Array>
          </mxGeometry>
        </mxCell>
        <mxCell id="AFnphyHwQlmlIxG2m7yG-39" value="i" style="edgeLabel;html=1;align=center;verticalAlign=middle;resizable=0;points=[];" vertex="1" connectable="0" parent="AFnphyHwQlmlIxG2m7yG-38">
          <mxGeometry x="0.9003" relative="1" as="geometry">
            <mxPoint as="offset" />
          </mxGeometry>
        </mxCell>
        <mxCell id="AFnphyHwQlmlIxG2m7yG-42" style="edgeStyle=orthogonalEdgeStyle;rounded=0;orthogonalLoop=1;jettySize=auto;html=1;entryX=0;entryY=0.5;entryDx=0;entryDy=0;" edge="1" parent="1" source="AFnphyHwQlmlIxG2m7yG-1" target="AFnphyHwQlmlIxG2m7yG-9">
          <mxGeometry relative="1" as="geometry">
            <Array as="points">
              <mxPoint x="55" y="755" />
            </Array>
          </mxGeometry>
        </mxCell>
        <mxCell id="AFnphyHwQlmlIxG2m7yG-43" value="p" style="edgeLabel;html=1;align=center;verticalAlign=middle;resizable=0;points=[];" vertex="1" connectable="0" parent="AFnphyHwQlmlIxG2m7yG-42">
          <mxGeometry x="0.9101" relative="1" as="geometry">
            <mxPoint as="offset" />
          </mxGeometry>
        </mxCell>
        <mxCell id="AFnphyHwQlmlIxG2m7yG-44" style="edgeStyle=orthogonalEdgeStyle;rounded=0;orthogonalLoop=1;jettySize=auto;html=1;entryX=0;entryY=0.5;entryDx=0;entryDy=0;" edge="1" parent="1" source="AFnphyHwQlmlIxG2m7yG-1" target="AFnphyHwQlmlIxG2m7yG-10">
          <mxGeometry relative="1" as="geometry">
            <Array as="points">
              <mxPoint x="55" y="855" />
            </Array>
          </mxGeometry>
        </mxCell>
        <mxCell id="AFnphyHwQlmlIxG2m7yG-45" value="r" style="edgeLabel;html=1;align=center;verticalAlign=middle;resizable=0;points=[];" vertex="1" connectable="0" parent="AFnphyHwQlmlIxG2m7yG-44">
          <mxGeometry x="0.921" y="-1" relative="1" as="geometry">
            <mxPoint as="offset" />
          </mxGeometry>
        </mxCell>
        <mxCell id="AFnphyHwQlmlIxG2m7yG-46" style="edgeStyle=orthogonalEdgeStyle;rounded=0;orthogonalLoop=1;jettySize=auto;html=1;entryX=0;entryY=0.5;entryDx=0;entryDy=0;" edge="1" parent="1" source="AFnphyHwQlmlIxG2m7yG-1" target="AFnphyHwQlmlIxG2m7yG-40">
          <mxGeometry relative="1" as="geometry">
            <Array as="points">
              <mxPoint x="55" y="905" />
            </Array>
          </mxGeometry>
        </mxCell>
        <mxCell id="AFnphyHwQlmlIxG2m7yG-47" value="t" style="edgeLabel;html=1;align=center;verticalAlign=middle;resizable=0;points=[];" vertex="1" connectable="0" parent="AFnphyHwQlmlIxG2m7yG-46">
          <mxGeometry x="0.9326" y="-1" relative="1" as="geometry">
            <mxPoint as="offset" />
          </mxGeometry>
        </mxCell>
        <mxCell id="AFnphyHwQlmlIxG2m7yG-48" style="edgeStyle=orthogonalEdgeStyle;rounded=0;orthogonalLoop=1;jettySize=auto;html=1;entryX=0;entryY=0.5;entryDx=0;entryDy=0;" edge="1" parent="1" source="AFnphyHwQlmlIxG2m7yG-1" target="AFnphyHwQlmlIxG2m7yG-41">
          <mxGeometry relative="1" as="geometry">
            <Array as="points">
              <mxPoint x="55" y="955" />
            </Array>
          </mxGeometry>
        </mxCell>
        <mxCell id="AFnphyHwQlmlIxG2m7yG-49" value="v" style="edgeLabel;html=1;align=center;verticalAlign=middle;resizable=0;points=[];" vertex="1" connectable="0" parent="AFnphyHwQlmlIxG2m7yG-48">
          <mxGeometry x="0.9333" y="-1" relative="1" as="geometry">
            <mxPoint as="offset" />
          </mxGeometry>
        </mxCell>
        <mxCell id="AFnphyHwQlmlIxG2m7yG-1" value="S0" style="ellipse;whiteSpace=wrap;html=1;aspect=fixed;" vertex="1" parent="1">
          <mxGeometry x="36" width="40" height="40" as="geometry" />
        </mxCell>
        <mxCell id="AFnphyHwQlmlIxG2m7yG-52" value="" style="edgeStyle=orthogonalEdgeStyle;rounded=0;orthogonalLoop=1;jettySize=auto;html=1;" edge="1" parent="1" source="AFnphyHwQlmlIxG2m7yG-2" target="AFnphyHwQlmlIxG2m7yG-51">
          <mxGeometry relative="1" as="geometry" />
        </mxCell>
        <mxCell id="AFnphyHwQlmlIxG2m7yG-57" value="u" style="edgeLabel;html=1;align=center;verticalAlign=middle;resizable=0;points=[];" vertex="1" connectable="0" parent="AFnphyHwQlmlIxG2m7yG-52">
          <mxGeometry x="0.0044" relative="1" as="geometry">
            <mxPoint as="offset" />
          </mxGeometry>
        </mxCell>
        <mxCell id="AFnphyHwQlmlIxG2m7yG-2" value="S7" style="ellipse;whiteSpace=wrap;html=1;aspect=fixed;" vertex="1" parent="1">
          <mxGeometry x="120" y="90" width="30" height="30" as="geometry" />
        </mxCell>
        <mxCell id="AFnphyHwQlmlIxG2m7yG-60" value="" style="edgeStyle=orthogonalEdgeStyle;rounded=0;orthogonalLoop=1;jettySize=auto;html=1;" edge="1" parent="1" source="AFnphyHwQlmlIxG2m7yG-3" target="AFnphyHwQlmlIxG2m7yG-59">
          <mxGeometry relative="1" as="geometry" />
        </mxCell>
        <mxCell id="AFnphyHwQlmlIxG2m7yG-67" value="" style="edgeStyle=orthogonalEdgeStyle;rounded=0;orthogonalLoop=1;jettySize=auto;html=1;" edge="1" parent="1" source="AFnphyHwQlmlIxG2m7yG-3" target="AFnphyHwQlmlIxG2m7yG-59">
          <mxGeometry relative="1" as="geometry" />
        </mxCell>
        <mxCell id="AFnphyHwQlmlIxG2m7yG-81" value="r" style="edgeLabel;html=1;align=center;verticalAlign=middle;resizable=0;points=[];" vertex="1" connectable="0" parent="AFnphyHwQlmlIxG2m7yG-67">
          <mxGeometry x="-0.1426" y="-1" relative="1" as="geometry">
            <mxPoint as="offset" />
          </mxGeometry>
        </mxCell>
        <mxCell id="AFnphyHwQlmlIxG2m7yG-71" style="edgeStyle=orthogonalEdgeStyle;rounded=0;orthogonalLoop=1;jettySize=auto;html=1;entryX=0;entryY=0.5;entryDx=0;entryDy=0;" edge="1" parent="1" source="AFnphyHwQlmlIxG2m7yG-3" target="AFnphyHwQlmlIxG2m7yG-70">
          <mxGeometry relative="1" as="geometry">
            <Array as="points">
              <mxPoint x="135" y="205" />
            </Array>
          </mxGeometry>
        </mxCell>
        <mxCell id="AFnphyHwQlmlIxG2m7yG-89" value="o" style="edgeLabel;html=1;align=center;verticalAlign=middle;resizable=0;points=[];" vertex="1" connectable="0" parent="AFnphyHwQlmlIxG2m7yG-71">
          <mxGeometry x="-0.0349" relative="1" as="geometry">
            <mxPoint as="offset" />
          </mxGeometry>
        </mxCell>
        <mxCell id="AFnphyHwQlmlIxG2m7yG-3" value="S10" style="ellipse;whiteSpace=wrap;html=1;aspect=fixed;" vertex="1" parent="1">
          <mxGeometry x="120" y="140" width="30" height="30" as="geometry" />
        </mxCell>
        <mxCell id="AFnphyHwQlmlIxG2m7yG-94" value="" style="edgeStyle=orthogonalEdgeStyle;rounded=0;orthogonalLoop=1;jettySize=auto;html=1;" edge="1" parent="1" source="AFnphyHwQlmlIxG2m7yG-4" target="AFnphyHwQlmlIxG2m7yG-91">
          <mxGeometry relative="1" as="geometry" />
        </mxCell>
        <mxCell id="AFnphyHwQlmlIxG2m7yG-97" value="l" style="edgeLabel;html=1;align=center;verticalAlign=middle;resizable=0;points=[];" vertex="1" connectable="0" parent="AFnphyHwQlmlIxG2m7yG-94">
          <mxGeometry x="-0.1119" relative="1" as="geometry">
            <mxPoint as="offset" />
          </mxGeometry>
        </mxCell>
        <mxCell id="AFnphyHwQlmlIxG2m7yG-107" style="edgeStyle=orthogonalEdgeStyle;rounded=0;orthogonalLoop=1;jettySize=auto;html=1;entryX=0;entryY=0.5;entryDx=0;entryDy=0;" edge="1" parent="1" source="AFnphyHwQlmlIxG2m7yG-4" target="AFnphyHwQlmlIxG2m7yG-105">
          <mxGeometry relative="1" as="geometry">
            <Array as="points">
              <mxPoint x="135" y="305" />
            </Array>
          </mxGeometry>
        </mxCell>
        <mxCell id="AFnphyHwQlmlIxG2m7yG-121" value="h" style="edgeLabel;html=1;align=center;verticalAlign=middle;resizable=0;points=[];" vertex="1" connectable="0" parent="AFnphyHwQlmlIxG2m7yG-107">
          <mxGeometry x="0.4213" y="-1" relative="1" as="geometry">
            <mxPoint as="offset" />
          </mxGeometry>
        </mxCell>
        <mxCell id="AFnphyHwQlmlIxG2m7yG-118" style="edgeStyle=orthogonalEdgeStyle;rounded=0;orthogonalLoop=1;jettySize=auto;html=1;entryX=0;entryY=0.5;entryDx=0;entryDy=0;" edge="1" parent="1" source="AFnphyHwQlmlIxG2m7yG-4" target="AFnphyHwQlmlIxG2m7yG-110">
          <mxGeometry relative="1" as="geometry">
            <Array as="points">
              <mxPoint x="135" y="355" />
            </Array>
          </mxGeometry>
        </mxCell>
        <mxCell id="AFnphyHwQlmlIxG2m7yG-124" value="a" style="edgeLabel;html=1;align=center;verticalAlign=middle;resizable=0;points=[];" vertex="1" connectable="0" parent="AFnphyHwQlmlIxG2m7yG-118">
          <mxGeometry x="0.7149" relative="1" as="geometry">
            <mxPoint as="offset" />
          </mxGeometry>
        </mxCell>
        <mxCell id="AFnphyHwQlmlIxG2m7yG-4" value="S16" style="ellipse;whiteSpace=wrap;html=1;aspect=fixed;" vertex="1" parent="1">
          <mxGeometry x="120" y="240" width="30" height="30" as="geometry" />
        </mxCell>
        <mxCell id="AFnphyHwQlmlIxG2m7yG-126" value="" style="edgeStyle=orthogonalEdgeStyle;rounded=0;orthogonalLoop=1;jettySize=auto;html=1;" edge="1" parent="1" source="AFnphyHwQlmlIxG2m7yG-5" target="AFnphyHwQlmlIxG2m7yG-125">
          <mxGeometry relative="1" as="geometry" />
        </mxCell>
        <mxCell id="AFnphyHwQlmlIxG2m7yG-135" value="o" style="edgeLabel;html=1;align=center;verticalAlign=middle;resizable=0;points=[];" vertex="1" connectable="0" parent="AFnphyHwQlmlIxG2m7yG-126">
          <mxGeometry x="-0.0875" relative="1" as="geometry">
            <mxPoint as="offset" />
          </mxGeometry>
        </mxCell>
        <mxCell id="AFnphyHwQlmlIxG2m7yG-141" style="edgeStyle=orthogonalEdgeStyle;rounded=0;orthogonalLoop=1;jettySize=auto;html=1;entryX=0;entryY=0.5;entryDx=0;entryDy=0;" edge="1" parent="1" source="AFnphyHwQlmlIxG2m7yG-5" target="AFnphyHwQlmlIxG2m7yG-140">
          <mxGeometry relative="1" as="geometry">
            <Array as="points">
              <mxPoint x="135" y="455" />
            </Array>
          </mxGeometry>
        </mxCell>
        <mxCell id="AFnphyHwQlmlIxG2m7yG-150" value="e" style="edgeLabel;html=1;align=center;verticalAlign=middle;resizable=0;points=[];" vertex="1" connectable="0" parent="AFnphyHwQlmlIxG2m7yG-141">
          <mxGeometry x="0.3656" relative="1" as="geometry">
            <mxPoint as="offset" />
          </mxGeometry>
        </mxCell>
        <mxCell id="AFnphyHwQlmlIxG2m7yG-5" value="S24" style="ellipse;whiteSpace=wrap;html=1;aspect=fixed;" vertex="1" parent="1">
          <mxGeometry x="120" y="390" width="30" height="30" as="geometry" />
        </mxCell>
        <mxCell id="AFnphyHwQlmlIxG2m7yG-156" value="l" style="edgeStyle=orthogonalEdgeStyle;rounded=0;orthogonalLoop=1;jettySize=auto;html=1;" edge="1" parent="1" source="AFnphyHwQlmlIxG2m7yG-6" target="AFnphyHwQlmlIxG2m7yG-155">
          <mxGeometry relative="1" as="geometry" />
        </mxCell>
        <mxCell id="AFnphyHwQlmlIxG2m7yG-6" value="S33" style="ellipse;whiteSpace=wrap;html=1;aspect=fixed;" vertex="1" parent="1">
          <mxGeometry x="120" y="490" width="30" height="30" as="geometry" />
        </mxCell>
        <mxCell id="AFnphyHwQlmlIxG2m7yG-164" value="" style="edgeStyle=orthogonalEdgeStyle;rounded=0;orthogonalLoop=1;jettySize=auto;html=1;" edge="1" parent="1" source="AFnphyHwQlmlIxG2m7yG-7" target="AFnphyHwQlmlIxG2m7yG-163">
          <mxGeometry relative="1" as="geometry" />
        </mxCell>
        <mxCell id="AFnphyHwQlmlIxG2m7yG-171" value="a" style="edgeLabel;html=1;align=center;verticalAlign=middle;resizable=0;points=[];" vertex="1" connectable="0" parent="AFnphyHwQlmlIxG2m7yG-164">
          <mxGeometry x="-0.15" y="-1" relative="1" as="geometry">
            <mxPoint as="offset" />
          </mxGeometry>
        </mxCell>
        <mxCell id="AFnphyHwQlmlIxG2m7yG-177" style="edgeStyle=orthogonalEdgeStyle;rounded=0;orthogonalLoop=1;jettySize=auto;html=1;entryX=0;entryY=0.5;entryDx=0;entryDy=0;" edge="1" parent="1" source="AFnphyHwQlmlIxG2m7yG-7" target="AFnphyHwQlmlIxG2m7yG-174">
          <mxGeometry relative="1" as="geometry">
            <Array as="points">
              <mxPoint x="135" y="615" />
            </Array>
          </mxGeometry>
        </mxCell>
        <mxCell id="AFnphyHwQlmlIxG2m7yG-179" value="o" style="edgeLabel;html=1;align=center;verticalAlign=middle;resizable=0;points=[];" vertex="1" connectable="0" parent="AFnphyHwQlmlIxG2m7yG-177">
          <mxGeometry x="0.1958" relative="1" as="geometry">
            <mxPoint as="offset" />
          </mxGeometry>
        </mxCell>
        <mxCell id="AFnphyHwQlmlIxG2m7yG-7" value="S36" style="ellipse;whiteSpace=wrap;html=1;aspect=fixed;" vertex="1" parent="1">
          <mxGeometry x="120" y="540" width="30" height="30" as="geometry" />
        </mxCell>
        <mxCell id="AFnphyHwQlmlIxG2m7yG-182" value="" style="edgeStyle=orthogonalEdgeStyle;rounded=0;orthogonalLoop=1;jettySize=auto;html=1;" edge="1" parent="1" source="AFnphyHwQlmlIxG2m7yG-8" target="AFnphyHwQlmlIxG2m7yG-181">
          <mxGeometry relative="1" as="geometry" />
        </mxCell>
        <mxCell id="AFnphyHwQlmlIxG2m7yG-185" value="n" style="edgeLabel;html=1;align=center;verticalAlign=middle;resizable=0;points=[];" vertex="1" connectable="0" parent="AFnphyHwQlmlIxG2m7yG-182">
          <mxGeometry x="-0.0563" relative="1" as="geometry">
            <mxPoint as="offset" />
          </mxGeometry>
        </mxCell>
        <mxCell id="AFnphyHwQlmlIxG2m7yG-187" style="edgeStyle=orthogonalEdgeStyle;rounded=0;orthogonalLoop=1;jettySize=auto;html=1;entryX=0;entryY=0.5;entryDx=0;entryDy=0;" edge="1" parent="1" source="AFnphyHwQlmlIxG2m7yG-8">
          <mxGeometry relative="1" as="geometry">
            <mxPoint x="170.0000000000034" y="704.9999999999998" as="targetPoint" />
            <Array as="points">
              <mxPoint x="135" y="705" />
            </Array>
          </mxGeometry>
        </mxCell>
        <mxCell id="AFnphyHwQlmlIxG2m7yG-190" value="f" style="edgeLabel;html=1;align=center;verticalAlign=middle;resizable=0;points=[];" vertex="1" connectable="0" parent="AFnphyHwQlmlIxG2m7yG-187">
          <mxGeometry x="-0.1012" relative="1" as="geometry">
            <mxPoint as="offset" />
          </mxGeometry>
        </mxCell>
        <mxCell id="AFnphyHwQlmlIxG2m7yG-8" value="S41" style="ellipse;whiteSpace=wrap;html=1;aspect=fixed;" vertex="1" parent="1">
          <mxGeometry x="120" y="650" width="30" height="30" as="geometry" />
        </mxCell>
        <mxCell id="AFnphyHwQlmlIxG2m7yG-192" value="" style="edgeStyle=orthogonalEdgeStyle;rounded=0;orthogonalLoop=1;jettySize=auto;html=1;" edge="1" parent="1" source="AFnphyHwQlmlIxG2m7yG-9" target="AFnphyHwQlmlIxG2m7yG-191">
          <mxGeometry relative="1" as="geometry" />
        </mxCell>
        <mxCell id="AFnphyHwQlmlIxG2m7yG-201" value="r" style="edgeLabel;html=1;align=center;verticalAlign=middle;resizable=0;points=[];" vertex="1" connectable="0" parent="AFnphyHwQlmlIxG2m7yG-192">
          <mxGeometry x="-0.0985" relative="1" as="geometry">
            <mxPoint as="offset" />
          </mxGeometry>
        </mxCell>
        <mxCell id="AFnphyHwQlmlIxG2m7yG-209" style="edgeStyle=orthogonalEdgeStyle;rounded=0;orthogonalLoop=1;jettySize=auto;html=1;entryX=0;entryY=0.5;entryDx=0;entryDy=0;" edge="1" parent="1" source="AFnphyHwQlmlIxG2m7yG-9" target="AFnphyHwQlmlIxG2m7yG-208">
          <mxGeometry relative="1" as="geometry">
            <Array as="points">
              <mxPoint x="135" y="805" />
            </Array>
          </mxGeometry>
        </mxCell>
        <mxCell id="AFnphyHwQlmlIxG2m7yG-210" value="u" style="edgeLabel;html=1;align=center;verticalAlign=middle;resizable=0;points=[];" vertex="1" connectable="0" parent="AFnphyHwQlmlIxG2m7yG-209">
          <mxGeometry x="0.1824" relative="1" as="geometry">
            <mxPoint as="offset" />
          </mxGeometry>
        </mxCell>
        <mxCell id="AFnphyHwQlmlIxG2m7yG-9" value="S43" style="ellipse;whiteSpace=wrap;html=1;aspect=fixed;" vertex="1" parent="1">
          <mxGeometry x="120" y="740" width="30" height="30" as="geometry" />
        </mxCell>
        <mxCell id="AFnphyHwQlmlIxG2m7yG-227" value="" style="edgeStyle=orthogonalEdgeStyle;rounded=0;orthogonalLoop=1;jettySize=auto;html=1;" edge="1" parent="1" source="AFnphyHwQlmlIxG2m7yG-10" target="AFnphyHwQlmlIxG2m7yG-226">
          <mxGeometry relative="1" as="geometry" />
        </mxCell>
        <mxCell id="AFnphyHwQlmlIxG2m7yG-236" value="e" style="edgeLabel;html=1;align=center;verticalAlign=middle;resizable=0;points=[];" vertex="1" connectable="0" parent="AFnphyHwQlmlIxG2m7yG-227">
          <mxGeometry x="-0.0103" relative="1" as="geometry">
            <mxPoint as="offset" />
          </mxGeometry>
        </mxCell>
        <mxCell id="AFnphyHwQlmlIxG2m7yG-10" value="S53" style="ellipse;whiteSpace=wrap;html=1;aspect=fixed;" vertex="1" parent="1">
          <mxGeometry x="120" y="840" width="30" height="30" as="geometry" />
        </mxCell>
        <mxCell id="AFnphyHwQlmlIxG2m7yG-242" value="" style="edgeStyle=orthogonalEdgeStyle;rounded=0;orthogonalLoop=1;jettySize=auto;html=1;" edge="1" parent="1" source="AFnphyHwQlmlIxG2m7yG-40" target="AFnphyHwQlmlIxG2m7yG-241">
          <mxGeometry relative="1" as="geometry" />
        </mxCell>
        <mxCell id="AFnphyHwQlmlIxG2m7yG-247" value="r" style="edgeLabel;html=1;align=center;verticalAlign=middle;resizable=0;points=[];" vertex="1" connectable="0" parent="AFnphyHwQlmlIxG2m7yG-242">
          <mxGeometry x="-0.0838" relative="1" as="geometry">
            <mxPoint as="offset" />
          </mxGeometry>
        </mxCell>
        <mxCell id="AFnphyHwQlmlIxG2m7yG-40" value="S58" style="ellipse;whiteSpace=wrap;html=1;aspect=fixed;" vertex="1" parent="1">
          <mxGeometry x="120" y="890" width="30" height="30" as="geometry" />
        </mxCell>
        <mxCell id="AFnphyHwQlmlIxG2m7yG-252" value="" style="edgeStyle=orthogonalEdgeStyle;rounded=0;orthogonalLoop=1;jettySize=auto;html=1;" edge="1" parent="1" source="AFnphyHwQlmlIxG2m7yG-41" target="AFnphyHwQlmlIxG2m7yG-251">
          <mxGeometry relative="1" as="geometry" />
        </mxCell>
        <mxCell id="AFnphyHwQlmlIxG2m7yG-257" value="o" style="edgeLabel;html=1;align=center;verticalAlign=middle;resizable=0;points=[];" vertex="1" connectable="0" parent="AFnphyHwQlmlIxG2m7yG-252">
          <mxGeometry x="-0.025" relative="1" as="geometry">
            <mxPoint as="offset" />
          </mxGeometry>
        </mxCell>
        <mxCell id="AFnphyHwQlmlIxG2m7yG-41" value="S61" style="ellipse;whiteSpace=wrap;html=1;aspect=fixed;" vertex="1" parent="1">
          <mxGeometry x="120" y="940" width="30" height="30" as="geometry" />
        </mxCell>
        <mxCell id="AFnphyHwQlmlIxG2m7yG-50" value="S1-S6 - конечные" style="text;html=1;align=center;verticalAlign=middle;whiteSpace=wrap;rounded=0;" vertex="1" parent="1">
          <mxGeometry x="210" y="20" width="60" height="30" as="geometry" />
        </mxCell>
        <mxCell id="AFnphyHwQlmlIxG2m7yG-54" value="" style="edgeStyle=orthogonalEdgeStyle;rounded=0;orthogonalLoop=1;jettySize=auto;html=1;" edge="1" parent="1" source="AFnphyHwQlmlIxG2m7yG-51" target="AFnphyHwQlmlIxG2m7yG-53">
          <mxGeometry relative="1" as="geometry" />
        </mxCell>
        <mxCell id="AFnphyHwQlmlIxG2m7yG-58" value="t" style="edgeLabel;html=1;align=center;verticalAlign=middle;resizable=0;points=[];" vertex="1" connectable="0" parent="AFnphyHwQlmlIxG2m7yG-54">
          <mxGeometry x="0.0044" y="-1" relative="1" as="geometry">
            <mxPoint as="offset" />
          </mxGeometry>
        </mxCell>
        <mxCell id="AFnphyHwQlmlIxG2m7yG-51" value="S8" style="ellipse;whiteSpace=wrap;html=1;aspect=fixed;" vertex="1" parent="1">
          <mxGeometry x="230" y="90" width="30" height="30" as="geometry" />
        </mxCell>
        <mxCell id="AFnphyHwQlmlIxG2m7yG-56" value="o" style="edgeStyle=orthogonalEdgeStyle;rounded=0;orthogonalLoop=1;jettySize=auto;html=1;entryX=0;entryY=0.5;entryDx=0;entryDy=0;" edge="1" parent="1" source="AFnphyHwQlmlIxG2m7yG-53" target="AFnphyHwQlmlIxG2m7yG-260">
          <mxGeometry relative="1" as="geometry">
            <mxPoint x="440" y="105" as="targetPoint" />
          </mxGeometry>
        </mxCell>
        <mxCell id="AFnphyHwQlmlIxG2m7yG-53" value="S9" style="ellipse;whiteSpace=wrap;html=1;aspect=fixed;" vertex="1" parent="1">
          <mxGeometry x="340" y="90" width="30" height="30" as="geometry" />
        </mxCell>
        <mxCell id="AFnphyHwQlmlIxG2m7yG-55" value="S1" style="ellipse;whiteSpace=wrap;html=1;aspect=fixed;" vertex="1" parent="1">
          <mxGeometry x="450" y="90" width="30" height="30" as="geometry" />
        </mxCell>
        <mxCell id="AFnphyHwQlmlIxG2m7yG-62" value="" style="edgeStyle=orthogonalEdgeStyle;rounded=0;orthogonalLoop=1;jettySize=auto;html=1;" edge="1" parent="1" source="AFnphyHwQlmlIxG2m7yG-59" target="AFnphyHwQlmlIxG2m7yG-61">
          <mxGeometry relative="1" as="geometry" />
        </mxCell>
        <mxCell id="AFnphyHwQlmlIxG2m7yG-82" value="e" style="edgeLabel;html=1;align=center;verticalAlign=middle;resizable=0;points=[];" vertex="1" connectable="0" parent="AFnphyHwQlmlIxG2m7yG-62">
          <mxGeometry x="0.0044" relative="1" as="geometry">
            <mxPoint as="offset" />
          </mxGeometry>
        </mxCell>
        <mxCell id="AFnphyHwQlmlIxG2m7yG-59" value="S11" style="ellipse;whiteSpace=wrap;html=1;aspect=fixed;" vertex="1" parent="1">
          <mxGeometry x="230" y="140" width="30" height="30" as="geometry" />
        </mxCell>
        <mxCell id="AFnphyHwQlmlIxG2m7yG-64" value="" style="edgeStyle=orthogonalEdgeStyle;rounded=0;orthogonalLoop=1;jettySize=auto;html=1;" edge="1" parent="1" source="AFnphyHwQlmlIxG2m7yG-61" target="AFnphyHwQlmlIxG2m7yG-63">
          <mxGeometry relative="1" as="geometry" />
        </mxCell>
        <mxCell id="AFnphyHwQlmlIxG2m7yG-83" value="a" style="edgeLabel;html=1;align=center;verticalAlign=middle;resizable=0;points=[];" vertex="1" connectable="0" parent="AFnphyHwQlmlIxG2m7yG-64">
          <mxGeometry x="-0.0397" relative="1" as="geometry">
            <mxPoint as="offset" />
          </mxGeometry>
        </mxCell>
        <mxCell id="AFnphyHwQlmlIxG2m7yG-61" value="S12" style="ellipse;whiteSpace=wrap;html=1;aspect=fixed;" vertex="1" parent="1">
          <mxGeometry x="340" y="140" width="30" height="30" as="geometry" />
        </mxCell>
        <mxCell id="AFnphyHwQlmlIxG2m7yG-66" value="" style="edgeStyle=orthogonalEdgeStyle;rounded=0;orthogonalLoop=1;jettySize=auto;html=1;" edge="1" parent="1" source="AFnphyHwQlmlIxG2m7yG-63">
          <mxGeometry relative="1" as="geometry">
            <mxPoint x="560" y="155" as="targetPoint" />
          </mxGeometry>
        </mxCell>
        <mxCell id="AFnphyHwQlmlIxG2m7yG-84" value="k" style="edgeLabel;html=1;align=center;verticalAlign=middle;resizable=0;points=[];" vertex="1" connectable="0" parent="AFnphyHwQlmlIxG2m7yG-66">
          <mxGeometry x="0.0485" relative="1" as="geometry">
            <mxPoint as="offset" />
          </mxGeometry>
        </mxCell>
        <mxCell id="AFnphyHwQlmlIxG2m7yG-63" value="S13" style="ellipse;whiteSpace=wrap;html=1;aspect=fixed;" vertex="1" parent="1">
          <mxGeometry x="450" y="140" width="30" height="30" as="geometry" />
        </mxCell>
        <mxCell id="AFnphyHwQlmlIxG2m7yG-78" value="" style="edgeStyle=orthogonalEdgeStyle;rounded=0;orthogonalLoop=1;jettySize=auto;html=1;" edge="1" parent="1" source="AFnphyHwQlmlIxG2m7yG-70" target="AFnphyHwQlmlIxG2m7yG-75">
          <mxGeometry relative="1" as="geometry" />
        </mxCell>
        <mxCell id="AFnphyHwQlmlIxG2m7yG-85" value="o" style="edgeLabel;html=1;align=center;verticalAlign=middle;resizable=0;points=[];" vertex="1" connectable="0" parent="AFnphyHwQlmlIxG2m7yG-78">
          <mxGeometry x="-0.1944" y="1" relative="1" as="geometry">
            <mxPoint as="offset" />
          </mxGeometry>
        </mxCell>
        <mxCell id="AFnphyHwQlmlIxG2m7yG-70" value="S14" style="ellipse;whiteSpace=wrap;html=1;aspect=fixed;" vertex="1" parent="1">
          <mxGeometry x="170" y="190" width="30" height="30" as="geometry" />
        </mxCell>
        <mxCell id="AFnphyHwQlmlIxG2m7yG-79" value="l" style="edgeStyle=orthogonalEdgeStyle;rounded=0;orthogonalLoop=1;jettySize=auto;html=1;" edge="1" parent="1" source="AFnphyHwQlmlIxG2m7yG-75">
          <mxGeometry relative="1" as="geometry">
            <mxPoint x="390" y="205" as="targetPoint" />
          </mxGeometry>
        </mxCell>
        <mxCell id="AFnphyHwQlmlIxG2m7yG-75" value="S15" style="ellipse;whiteSpace=wrap;html=1;aspect=fixed;" vertex="1" parent="1">
          <mxGeometry x="280" y="190" width="30" height="30" as="geometry" />
        </mxCell>
        <mxCell id="AFnphyHwQlmlIxG2m7yG-95" value="" style="edgeStyle=orthogonalEdgeStyle;rounded=0;orthogonalLoop=1;jettySize=auto;html=1;" edge="1" parent="1" source="AFnphyHwQlmlIxG2m7yG-91" target="AFnphyHwQlmlIxG2m7yG-92">
          <mxGeometry relative="1" as="geometry" />
        </mxCell>
        <mxCell id="AFnphyHwQlmlIxG2m7yG-98" value="a" style="edgeLabel;html=1;align=center;verticalAlign=middle;resizable=0;points=[];" vertex="1" connectable="0" parent="AFnphyHwQlmlIxG2m7yG-95">
          <mxGeometry x="0.0071" relative="1" as="geometry">
            <mxPoint as="offset" />
          </mxGeometry>
        </mxCell>
        <mxCell id="AFnphyHwQlmlIxG2m7yG-91" value="S17" style="ellipse;whiteSpace=wrap;html=1;aspect=fixed;" vertex="1" parent="1">
          <mxGeometry x="230" y="240" width="30" height="30" as="geometry" />
        </mxCell>
        <mxCell id="AFnphyHwQlmlIxG2m7yG-96" value="" style="edgeStyle=orthogonalEdgeStyle;rounded=0;orthogonalLoop=1;jettySize=auto;html=1;" edge="1" parent="1" source="AFnphyHwQlmlIxG2m7yG-92" target="AFnphyHwQlmlIxG2m7yG-93">
          <mxGeometry relative="1" as="geometry" />
        </mxCell>
        <mxCell id="AFnphyHwQlmlIxG2m7yG-101" value="s" style="edgeLabel;html=1;align=center;verticalAlign=middle;resizable=0;points=[];" vertex="1" connectable="0" parent="AFnphyHwQlmlIxG2m7yG-96">
          <mxGeometry x="-0.1357" y="-1" relative="1" as="geometry">
            <mxPoint as="offset" />
          </mxGeometry>
        </mxCell>
        <mxCell id="AFnphyHwQlmlIxG2m7yG-92" value="S18" style="ellipse;whiteSpace=wrap;html=1;aspect=fixed;" vertex="1" parent="1">
          <mxGeometry x="340" y="240" width="30" height="30" as="geometry" />
        </mxCell>
        <mxCell id="AFnphyHwQlmlIxG2m7yG-100" value="" style="edgeStyle=orthogonalEdgeStyle;rounded=0;orthogonalLoop=1;jettySize=auto;html=1;" edge="1" parent="1" source="AFnphyHwQlmlIxG2m7yG-93">
          <mxGeometry relative="1" as="geometry">
            <mxPoint x="560" y="255" as="targetPoint" />
          </mxGeometry>
        </mxCell>
        <mxCell id="AFnphyHwQlmlIxG2m7yG-102" value="s" style="edgeLabel;html=1;align=center;verticalAlign=middle;resizable=0;points=[];" vertex="1" connectable="0" parent="AFnphyHwQlmlIxG2m7yG-100">
          <mxGeometry x="-0.0524" relative="1" as="geometry">
            <mxPoint as="offset" />
          </mxGeometry>
        </mxCell>
        <mxCell id="AFnphyHwQlmlIxG2m7yG-93" value="S19" style="ellipse;whiteSpace=wrap;html=1;aspect=fixed;" vertex="1" parent="1">
          <mxGeometry x="450" y="240" width="30" height="30" as="geometry" />
        </mxCell>
        <mxCell id="AFnphyHwQlmlIxG2m7yG-116" style="edgeStyle=orthogonalEdgeStyle;rounded=0;orthogonalLoop=1;jettySize=auto;html=1;entryX=0;entryY=0.5;entryDx=0;entryDy=0;" edge="1" parent="1" source="AFnphyHwQlmlIxG2m7yG-105" target="AFnphyHwQlmlIxG2m7yG-108">
          <mxGeometry relative="1" as="geometry" />
        </mxCell>
        <mxCell id="AFnphyHwQlmlIxG2m7yG-122" value="a" style="edgeLabel;html=1;align=center;verticalAlign=middle;resizable=0;points=[];" vertex="1" connectable="0" parent="AFnphyHwQlmlIxG2m7yG-116">
          <mxGeometry x="-0.1848" y="-2" relative="1" as="geometry">
            <mxPoint as="offset" />
          </mxGeometry>
        </mxCell>
        <mxCell id="AFnphyHwQlmlIxG2m7yG-105" value="S20" style="ellipse;whiteSpace=wrap;html=1;aspect=fixed;" vertex="1" parent="1">
          <mxGeometry x="170" y="290" width="30" height="30" as="geometry" />
        </mxCell>
        <mxCell id="AFnphyHwQlmlIxG2m7yG-117" style="edgeStyle=orthogonalEdgeStyle;rounded=0;orthogonalLoop=1;jettySize=auto;html=1;entryX=0;entryY=0.5;entryDx=0;entryDy=0;" edge="1" parent="1" source="AFnphyHwQlmlIxG2m7yG-108">
          <mxGeometry relative="1" as="geometry">
            <mxPoint x="390.0000000000068" y="305" as="targetPoint" />
          </mxGeometry>
        </mxCell>
        <mxCell id="AFnphyHwQlmlIxG2m7yG-123" value="r" style="edgeLabel;html=1;align=center;verticalAlign=middle;resizable=0;points=[];" vertex="1" connectable="0" parent="AFnphyHwQlmlIxG2m7yG-117">
          <mxGeometry x="-0.24" y="-1" relative="1" as="geometry">
            <mxPoint as="offset" />
          </mxGeometry>
        </mxCell>
        <mxCell id="AFnphyHwQlmlIxG2m7yG-108" value="S21" style="ellipse;whiteSpace=wrap;html=1;aspect=fixed;" vertex="1" parent="1">
          <mxGeometry x="280" y="290" width="30" height="30" as="geometry" />
        </mxCell>
        <mxCell id="AFnphyHwQlmlIxG2m7yG-119" value="s" style="edgeStyle=orthogonalEdgeStyle;rounded=0;orthogonalLoop=1;jettySize=auto;html=1;entryX=0;entryY=0.5;entryDx=0;entryDy=0;" edge="1" parent="1" source="AFnphyHwQlmlIxG2m7yG-110" target="AFnphyHwQlmlIxG2m7yG-111">
          <mxGeometry relative="1" as="geometry" />
        </mxCell>
        <mxCell id="AFnphyHwQlmlIxG2m7yG-110" value="S22" style="ellipse;whiteSpace=wrap;html=1;aspect=fixed;" vertex="1" parent="1">
          <mxGeometry x="170" y="340" width="30" height="30" as="geometry" />
        </mxCell>
        <mxCell id="AFnphyHwQlmlIxG2m7yG-120" value="e" style="edgeStyle=orthogonalEdgeStyle;rounded=0;orthogonalLoop=1;jettySize=auto;html=1;entryX=0;entryY=0.5;entryDx=0;entryDy=0;" edge="1" parent="1" source="AFnphyHwQlmlIxG2m7yG-111">
          <mxGeometry relative="1" as="geometry">
            <mxPoint x="390.0000000000068" y="355" as="targetPoint" />
          </mxGeometry>
        </mxCell>
        <mxCell id="AFnphyHwQlmlIxG2m7yG-111" value="S23" style="ellipse;whiteSpace=wrap;html=1;aspect=fixed;" vertex="1" parent="1">
          <mxGeometry x="280" y="340" width="30" height="30" as="geometry" />
        </mxCell>
        <mxCell id="AFnphyHwQlmlIxG2m7yG-128" value="" style="edgeStyle=orthogonalEdgeStyle;rounded=0;orthogonalLoop=1;jettySize=auto;html=1;" edge="1" parent="1" source="AFnphyHwQlmlIxG2m7yG-125" target="AFnphyHwQlmlIxG2m7yG-127">
          <mxGeometry relative="1" as="geometry" />
        </mxCell>
        <mxCell id="AFnphyHwQlmlIxG2m7yG-136" value="u" style="edgeLabel;html=1;align=center;verticalAlign=middle;resizable=0;points=[];" vertex="1" connectable="0" parent="AFnphyHwQlmlIxG2m7yG-128">
          <mxGeometry x="-0.0719" relative="1" as="geometry">
            <mxPoint as="offset" />
          </mxGeometry>
        </mxCell>
        <mxCell id="AFnphyHwQlmlIxG2m7yG-125" value="S25" style="ellipse;whiteSpace=wrap;html=1;aspect=fixed;" vertex="1" parent="1">
          <mxGeometry x="230" y="390" width="30" height="30" as="geometry" />
        </mxCell>
        <mxCell id="AFnphyHwQlmlIxG2m7yG-130" value="" style="edgeStyle=orthogonalEdgeStyle;rounded=0;orthogonalLoop=1;jettySize=auto;html=1;" edge="1" parent="1" source="AFnphyHwQlmlIxG2m7yG-127" target="AFnphyHwQlmlIxG2m7yG-129">
          <mxGeometry relative="1" as="geometry" />
        </mxCell>
        <mxCell id="AFnphyHwQlmlIxG2m7yG-137" value="b" style="edgeLabel;html=1;align=center;verticalAlign=middle;resizable=0;points=[];" vertex="1" connectable="0" parent="AFnphyHwQlmlIxG2m7yG-130">
          <mxGeometry x="-0.0563" relative="1" as="geometry">
            <mxPoint as="offset" />
          </mxGeometry>
        </mxCell>
        <mxCell id="AFnphyHwQlmlIxG2m7yG-127" value="S26" style="ellipse;whiteSpace=wrap;html=1;aspect=fixed;" vertex="1" parent="1">
          <mxGeometry x="340" y="390" width="30" height="30" as="geometry" />
        </mxCell>
        <mxCell id="AFnphyHwQlmlIxG2m7yG-132" value="" style="edgeStyle=orthogonalEdgeStyle;rounded=0;orthogonalLoop=1;jettySize=auto;html=1;" edge="1" parent="1" source="AFnphyHwQlmlIxG2m7yG-129" target="AFnphyHwQlmlIxG2m7yG-131">
          <mxGeometry relative="1" as="geometry" />
        </mxCell>
        <mxCell id="AFnphyHwQlmlIxG2m7yG-138" value="l" style="edgeLabel;html=1;align=center;verticalAlign=middle;resizable=0;points=[];" vertex="1" connectable="0" parent="AFnphyHwQlmlIxG2m7yG-132">
          <mxGeometry x="-0.1188" relative="1" as="geometry">
            <mxPoint as="offset" />
          </mxGeometry>
        </mxCell>
        <mxCell id="AFnphyHwQlmlIxG2m7yG-129" value="S27" style="ellipse;whiteSpace=wrap;html=1;aspect=fixed;" vertex="1" parent="1">
          <mxGeometry x="450" y="390" width="30" height="30" as="geometry" />
        </mxCell>
        <mxCell id="AFnphyHwQlmlIxG2m7yG-134" value="" style="edgeStyle=orthogonalEdgeStyle;rounded=0;orthogonalLoop=1;jettySize=auto;html=1;" edge="1" parent="1" source="AFnphyHwQlmlIxG2m7yG-131">
          <mxGeometry relative="1" as="geometry">
            <mxPoint x="669.9999999999998" y="405" as="targetPoint" />
          </mxGeometry>
        </mxCell>
        <mxCell id="AFnphyHwQlmlIxG2m7yG-139" value="e" style="edgeLabel;html=1;align=center;verticalAlign=middle;resizable=0;points=[];" vertex="1" connectable="0" parent="AFnphyHwQlmlIxG2m7yG-134">
          <mxGeometry x="-0.025" relative="1" as="geometry">
            <mxPoint as="offset" />
          </mxGeometry>
        </mxCell>
        <mxCell id="AFnphyHwQlmlIxG2m7yG-131" value="S28" style="ellipse;whiteSpace=wrap;html=1;aspect=fixed;" vertex="1" parent="1">
          <mxGeometry x="560" y="390" width="30" height="30" as="geometry" />
        </mxCell>
        <mxCell id="AFnphyHwQlmlIxG2m7yG-143" value="" style="edgeStyle=orthogonalEdgeStyle;rounded=0;orthogonalLoop=1;jettySize=auto;html=1;" edge="1" parent="1" source="AFnphyHwQlmlIxG2m7yG-140" target="AFnphyHwQlmlIxG2m7yG-142">
          <mxGeometry relative="1" as="geometry" />
        </mxCell>
        <mxCell id="AFnphyHwQlmlIxG2m7yG-151" value="l" style="edgeLabel;html=1;align=center;verticalAlign=middle;resizable=0;points=[];" vertex="1" connectable="0" parent="AFnphyHwQlmlIxG2m7yG-143">
          <mxGeometry x="-0.0563" relative="1" as="geometry">
            <mxPoint as="offset" />
          </mxGeometry>
        </mxCell>
        <mxCell id="AFnphyHwQlmlIxG2m7yG-140" value="S29" style="ellipse;whiteSpace=wrap;html=1;aspect=fixed;" vertex="1" parent="1">
          <mxGeometry x="170" y="440" width="30" height="30" as="geometry" />
        </mxCell>
        <mxCell id="AFnphyHwQlmlIxG2m7yG-145" value="" style="edgeStyle=orthogonalEdgeStyle;rounded=0;orthogonalLoop=1;jettySize=auto;html=1;" edge="1" parent="1" source="AFnphyHwQlmlIxG2m7yG-142" target="AFnphyHwQlmlIxG2m7yG-144">
          <mxGeometry relative="1" as="geometry" />
        </mxCell>
        <mxCell id="AFnphyHwQlmlIxG2m7yG-152" value="e" style="edgeLabel;html=1;align=center;verticalAlign=middle;resizable=0;points=[];" vertex="1" connectable="0" parent="AFnphyHwQlmlIxG2m7yG-145">
          <mxGeometry x="-0.0406" relative="1" as="geometry">
            <mxPoint as="offset" />
          </mxGeometry>
        </mxCell>
        <mxCell id="AFnphyHwQlmlIxG2m7yG-142" value="S30" style="ellipse;whiteSpace=wrap;html=1;aspect=fixed;" vertex="1" parent="1">
          <mxGeometry x="280" y="440" width="30" height="30" as="geometry" />
        </mxCell>
        <mxCell id="AFnphyHwQlmlIxG2m7yG-147" value="" style="edgeStyle=orthogonalEdgeStyle;rounded=0;orthogonalLoop=1;jettySize=auto;html=1;" edge="1" parent="1" source="AFnphyHwQlmlIxG2m7yG-144" target="AFnphyHwQlmlIxG2m7yG-146">
          <mxGeometry relative="1" as="geometry" />
        </mxCell>
        <mxCell id="AFnphyHwQlmlIxG2m7yG-153" value="t" style="edgeLabel;html=1;align=center;verticalAlign=middle;resizable=0;points=[];" vertex="1" connectable="0" parent="AFnphyHwQlmlIxG2m7yG-147">
          <mxGeometry x="-0.0406" relative="1" as="geometry">
            <mxPoint as="offset" />
          </mxGeometry>
        </mxCell>
        <mxCell id="AFnphyHwQlmlIxG2m7yG-144" value="S31" style="ellipse;whiteSpace=wrap;html=1;aspect=fixed;" vertex="1" parent="1">
          <mxGeometry x="390" y="440" width="30" height="30" as="geometry" />
        </mxCell>
        <mxCell id="AFnphyHwQlmlIxG2m7yG-149" value="" style="edgeStyle=orthogonalEdgeStyle;rounded=0;orthogonalLoop=1;jettySize=auto;html=1;" edge="1" parent="1" source="AFnphyHwQlmlIxG2m7yG-146">
          <mxGeometry relative="1" as="geometry">
            <mxPoint x="610" y="455" as="targetPoint" />
          </mxGeometry>
        </mxCell>
        <mxCell id="AFnphyHwQlmlIxG2m7yG-154" value="e" style="edgeLabel;html=1;align=center;verticalAlign=middle;resizable=0;points=[];" vertex="1" connectable="0" parent="AFnphyHwQlmlIxG2m7yG-149">
          <mxGeometry x="-0.025" relative="1" as="geometry">
            <mxPoint as="offset" />
          </mxGeometry>
        </mxCell>
        <mxCell id="AFnphyHwQlmlIxG2m7yG-146" value="S32" style="ellipse;whiteSpace=wrap;html=1;aspect=fixed;" vertex="1" parent="1">
          <mxGeometry x="500" y="440" width="30" height="30" as="geometry" />
        </mxCell>
        <mxCell id="AFnphyHwQlmlIxG2m7yG-158" value="" style="edgeStyle=orthogonalEdgeStyle;rounded=0;orthogonalLoop=1;jettySize=auto;html=1;" edge="1" parent="1" source="AFnphyHwQlmlIxG2m7yG-155" target="AFnphyHwQlmlIxG2m7yG-157">
          <mxGeometry relative="1" as="geometry" />
        </mxCell>
        <mxCell id="AFnphyHwQlmlIxG2m7yG-161" value="s" style="edgeLabel;html=1;align=center;verticalAlign=middle;resizable=0;points=[];" vertex="1" connectable="0" parent="AFnphyHwQlmlIxG2m7yG-158">
          <mxGeometry x="-0.0875" relative="1" as="geometry">
            <mxPoint as="offset" />
          </mxGeometry>
        </mxCell>
        <mxCell id="AFnphyHwQlmlIxG2m7yG-155" value="S34" style="ellipse;whiteSpace=wrap;html=1;aspect=fixed;" vertex="1" parent="1">
          <mxGeometry x="230" y="490" width="30" height="30" as="geometry" />
        </mxCell>
        <mxCell id="AFnphyHwQlmlIxG2m7yG-160" value="" style="edgeStyle=orthogonalEdgeStyle;rounded=0;orthogonalLoop=1;jettySize=auto;html=1;" edge="1" parent="1" source="AFnphyHwQlmlIxG2m7yG-157">
          <mxGeometry relative="1" as="geometry">
            <mxPoint x="450" y="505" as="targetPoint" />
          </mxGeometry>
        </mxCell>
        <mxCell id="AFnphyHwQlmlIxG2m7yG-162" value="e" style="edgeLabel;html=1;align=center;verticalAlign=middle;resizable=0;points=[];" vertex="1" connectable="0" parent="AFnphyHwQlmlIxG2m7yG-160">
          <mxGeometry x="0.0375" y="-1" relative="1" as="geometry">
            <mxPoint as="offset" />
          </mxGeometry>
        </mxCell>
        <mxCell id="AFnphyHwQlmlIxG2m7yG-157" value="S35" style="ellipse;whiteSpace=wrap;html=1;aspect=fixed;" vertex="1" parent="1">
          <mxGeometry x="340" y="490" width="30" height="30" as="geometry" />
        </mxCell>
        <mxCell id="AFnphyHwQlmlIxG2m7yG-166" value="l" style="edgeStyle=orthogonalEdgeStyle;rounded=0;orthogonalLoop=1;jettySize=auto;html=1;" edge="1" parent="1" source="AFnphyHwQlmlIxG2m7yG-163" target="AFnphyHwQlmlIxG2m7yG-165">
          <mxGeometry relative="1" as="geometry" />
        </mxCell>
        <mxCell id="AFnphyHwQlmlIxG2m7yG-163" value="S37" style="ellipse;whiteSpace=wrap;html=1;aspect=fixed;" vertex="1" parent="1">
          <mxGeometry x="230" y="540" width="30" height="30" as="geometry" />
        </mxCell>
        <mxCell id="AFnphyHwQlmlIxG2m7yG-168" value="" style="edgeStyle=orthogonalEdgeStyle;rounded=0;orthogonalLoop=1;jettySize=auto;html=1;" edge="1" parent="1" source="AFnphyHwQlmlIxG2m7yG-165" target="AFnphyHwQlmlIxG2m7yG-167">
          <mxGeometry relative="1" as="geometry" />
        </mxCell>
        <mxCell id="AFnphyHwQlmlIxG2m7yG-172" value="s" style="edgeLabel;html=1;align=center;verticalAlign=middle;resizable=0;points=[];" vertex="1" connectable="0" parent="AFnphyHwQlmlIxG2m7yG-168">
          <mxGeometry x="0.0219" relative="1" as="geometry">
            <mxPoint as="offset" />
          </mxGeometry>
        </mxCell>
        <mxCell id="AFnphyHwQlmlIxG2m7yG-165" value="S38" style="ellipse;whiteSpace=wrap;html=1;aspect=fixed;" vertex="1" parent="1">
          <mxGeometry x="340" y="540" width="30" height="30" as="geometry" />
        </mxCell>
        <mxCell id="AFnphyHwQlmlIxG2m7yG-170" value="" style="edgeStyle=orthogonalEdgeStyle;rounded=0;orthogonalLoop=1;jettySize=auto;html=1;" edge="1" parent="1" source="AFnphyHwQlmlIxG2m7yG-167">
          <mxGeometry relative="1" as="geometry">
            <mxPoint x="560" y="555" as="targetPoint" />
          </mxGeometry>
        </mxCell>
        <mxCell id="AFnphyHwQlmlIxG2m7yG-173" value="e" style="edgeLabel;html=1;align=center;verticalAlign=middle;resizable=0;points=[];" vertex="1" connectable="0" parent="AFnphyHwQlmlIxG2m7yG-170">
          <mxGeometry x="0.0219" y="-1" relative="1" as="geometry">
            <mxPoint as="offset" />
          </mxGeometry>
        </mxCell>
        <mxCell id="AFnphyHwQlmlIxG2m7yG-167" value="S39" style="ellipse;whiteSpace=wrap;html=1;aspect=fixed;" vertex="1" parent="1">
          <mxGeometry x="450" y="540" width="30" height="30" as="geometry" />
        </mxCell>
        <mxCell id="AFnphyHwQlmlIxG2m7yG-176" style="edgeStyle=orthogonalEdgeStyle;rounded=0;orthogonalLoop=1;jettySize=auto;html=1;entryX=0;entryY=0.5;entryDx=0;entryDy=0;" edge="1" parent="1" source="AFnphyHwQlmlIxG2m7yG-174">
          <mxGeometry relative="1" as="geometry">
            <mxPoint x="280" y="615" as="targetPoint" />
          </mxGeometry>
        </mxCell>
        <mxCell id="AFnphyHwQlmlIxG2m7yG-180" value="r" style="edgeLabel;html=1;align=center;verticalAlign=middle;resizable=0;points=[];" vertex="1" connectable="0" parent="AFnphyHwQlmlIxG2m7yG-176">
          <mxGeometry x="-0.015" relative="1" as="geometry">
            <mxPoint as="offset" />
          </mxGeometry>
        </mxCell>
        <mxCell id="AFnphyHwQlmlIxG2m7yG-174" value="S40" style="ellipse;whiteSpace=wrap;html=1;aspect=fixed;" vertex="1" parent="1">
          <mxGeometry x="170" y="600" width="30" height="30" as="geometry" />
        </mxCell>
        <mxCell id="AFnphyHwQlmlIxG2m7yG-184" value="t" style="edgeStyle=orthogonalEdgeStyle;rounded=0;orthogonalLoop=1;jettySize=auto;html=1;" edge="1" parent="1" source="AFnphyHwQlmlIxG2m7yG-181">
          <mxGeometry relative="1" as="geometry">
            <mxPoint x="340" y="665" as="targetPoint" />
          </mxGeometry>
        </mxCell>
        <mxCell id="AFnphyHwQlmlIxG2m7yG-181" value="S42" style="ellipse;whiteSpace=wrap;html=1;aspect=fixed;" vertex="1" parent="1">
          <mxGeometry x="230" y="650" width="30" height="30" as="geometry" />
        </mxCell>
        <mxCell id="AFnphyHwQlmlIxG2m7yG-194" value="" style="edgeStyle=orthogonalEdgeStyle;rounded=0;orthogonalLoop=1;jettySize=auto;html=1;" edge="1" parent="1" source="AFnphyHwQlmlIxG2m7yG-191" target="AFnphyHwQlmlIxG2m7yG-193">
          <mxGeometry relative="1" as="geometry" />
        </mxCell>
        <mxCell id="AFnphyHwQlmlIxG2m7yG-202" value="i" style="edgeLabel;html=1;align=center;verticalAlign=middle;resizable=0;points=[];" vertex="1" connectable="0" parent="AFnphyHwQlmlIxG2m7yG-194">
          <mxGeometry x="-0.0838" relative="1" as="geometry">
            <mxPoint as="offset" />
          </mxGeometry>
        </mxCell>
        <mxCell id="AFnphyHwQlmlIxG2m7yG-191" value="S44" style="ellipse;whiteSpace=wrap;html=1;aspect=fixed;" vertex="1" parent="1">
          <mxGeometry x="230" y="740" width="30" height="30" as="geometry" />
        </mxCell>
        <mxCell id="AFnphyHwQlmlIxG2m7yG-196" value="" style="edgeStyle=orthogonalEdgeStyle;rounded=0;orthogonalLoop=1;jettySize=auto;html=1;" edge="1" parent="1" source="AFnphyHwQlmlIxG2m7yG-193" target="AFnphyHwQlmlIxG2m7yG-195">
          <mxGeometry relative="1" as="geometry" />
        </mxCell>
        <mxCell id="AFnphyHwQlmlIxG2m7yG-203" value="v" style="edgeLabel;html=1;align=center;verticalAlign=middle;resizable=0;points=[];" vertex="1" connectable="0" parent="AFnphyHwQlmlIxG2m7yG-196">
          <mxGeometry x="-0.0103" relative="1" as="geometry">
            <mxPoint as="offset" />
          </mxGeometry>
        </mxCell>
        <mxCell id="AFnphyHwQlmlIxG2m7yG-193" value="S45" style="ellipse;whiteSpace=wrap;html=1;aspect=fixed;" vertex="1" parent="1">
          <mxGeometry x="340" y="740" width="30" height="30" as="geometry" />
        </mxCell>
        <mxCell id="AFnphyHwQlmlIxG2m7yG-198" value="" style="edgeStyle=orthogonalEdgeStyle;rounded=0;orthogonalLoop=1;jettySize=auto;html=1;" edge="1" parent="1" source="AFnphyHwQlmlIxG2m7yG-195" target="AFnphyHwQlmlIxG2m7yG-197">
          <mxGeometry relative="1" as="geometry" />
        </mxCell>
        <mxCell id="AFnphyHwQlmlIxG2m7yG-204" value="a" style="edgeLabel;html=1;align=center;verticalAlign=middle;resizable=0;points=[];" vertex="1" connectable="0" parent="AFnphyHwQlmlIxG2m7yG-198">
          <mxGeometry x="-0.0103" relative="1" as="geometry">
            <mxPoint as="offset" />
          </mxGeometry>
        </mxCell>
        <mxCell id="AFnphyHwQlmlIxG2m7yG-195" value="S46" style="ellipse;whiteSpace=wrap;html=1;aspect=fixed;" vertex="1" parent="1">
          <mxGeometry x="450" y="740" width="30" height="30" as="geometry" />
        </mxCell>
        <mxCell id="AFnphyHwQlmlIxG2m7yG-200" value="t" style="edgeStyle=orthogonalEdgeStyle;rounded=0;orthogonalLoop=1;jettySize=auto;html=1;" edge="1" parent="1" source="AFnphyHwQlmlIxG2m7yG-197" target="AFnphyHwQlmlIxG2m7yG-199">
          <mxGeometry relative="1" as="geometry">
            <mxPoint as="offset" />
          </mxGeometry>
        </mxCell>
        <mxCell id="AFnphyHwQlmlIxG2m7yG-197" value="S47" style="ellipse;whiteSpace=wrap;html=1;aspect=fixed;" vertex="1" parent="1">
          <mxGeometry x="560" y="740" width="30" height="30" as="geometry" />
        </mxCell>
        <mxCell id="AFnphyHwQlmlIxG2m7yG-206" value="" style="edgeStyle=orthogonalEdgeStyle;rounded=0;orthogonalLoop=1;jettySize=auto;html=1;" edge="1" parent="1" source="AFnphyHwQlmlIxG2m7yG-199">
          <mxGeometry relative="1" as="geometry">
            <mxPoint x="780" y="754.9999999999998" as="targetPoint" />
          </mxGeometry>
        </mxCell>
        <mxCell id="AFnphyHwQlmlIxG2m7yG-207" value="e" style="edgeLabel;html=1;align=center;verticalAlign=middle;resizable=0;points=[];" vertex="1" connectable="0" parent="AFnphyHwQlmlIxG2m7yG-206">
          <mxGeometry x="-0.0544" relative="1" as="geometry">
            <mxPoint as="offset" />
          </mxGeometry>
        </mxCell>
        <mxCell id="AFnphyHwQlmlIxG2m7yG-199" value="S48" style="ellipse;whiteSpace=wrap;html=1;aspect=fixed;" vertex="1" parent="1">
          <mxGeometry x="670" y="740" width="30" height="30" as="geometry" />
        </mxCell>
        <mxCell id="AFnphyHwQlmlIxG2m7yG-216" value="" style="edgeStyle=orthogonalEdgeStyle;rounded=0;orthogonalLoop=1;jettySize=auto;html=1;" edge="1" parent="1" source="AFnphyHwQlmlIxG2m7yG-208" target="AFnphyHwQlmlIxG2m7yG-212">
          <mxGeometry relative="1" as="geometry" />
        </mxCell>
        <mxCell id="AFnphyHwQlmlIxG2m7yG-221" value="b" style="edgeLabel;html=1;align=center;verticalAlign=middle;resizable=0;points=[];" vertex="1" connectable="0" parent="AFnphyHwQlmlIxG2m7yG-216">
          <mxGeometry x="-0.0518" relative="1" as="geometry">
            <mxPoint as="offset" />
          </mxGeometry>
        </mxCell>
        <mxCell id="AFnphyHwQlmlIxG2m7yG-208" value="S49" style="ellipse;whiteSpace=wrap;html=1;aspect=fixed;" vertex="1" parent="1">
          <mxGeometry x="170" y="790" width="30" height="30" as="geometry" />
        </mxCell>
        <mxCell id="AFnphyHwQlmlIxG2m7yG-217" value="" style="edgeStyle=orthogonalEdgeStyle;rounded=0;orthogonalLoop=1;jettySize=auto;html=1;" edge="1" parent="1" source="AFnphyHwQlmlIxG2m7yG-212" target="AFnphyHwQlmlIxG2m7yG-213">
          <mxGeometry relative="1" as="geometry" />
        </mxCell>
        <mxCell id="AFnphyHwQlmlIxG2m7yG-222" value="l" style="edgeLabel;html=1;align=center;verticalAlign=middle;resizable=0;points=[];" vertex="1" connectable="0" parent="AFnphyHwQlmlIxG2m7yG-217">
          <mxGeometry x="-0.0753" relative="1" as="geometry">
            <mxPoint as="offset" />
          </mxGeometry>
        </mxCell>
        <mxCell id="AFnphyHwQlmlIxG2m7yG-212" value="S50" style="ellipse;whiteSpace=wrap;html=1;aspect=fixed;" vertex="1" parent="1">
          <mxGeometry x="280" y="790" width="30" height="30" as="geometry" />
        </mxCell>
        <mxCell id="AFnphyHwQlmlIxG2m7yG-218" value="" style="edgeStyle=orthogonalEdgeStyle;rounded=0;orthogonalLoop=1;jettySize=auto;html=1;" edge="1" parent="1" source="AFnphyHwQlmlIxG2m7yG-213" target="AFnphyHwQlmlIxG2m7yG-214">
          <mxGeometry relative="1" as="geometry" />
        </mxCell>
        <mxCell id="AFnphyHwQlmlIxG2m7yG-223" value="i" style="edgeLabel;html=1;align=center;verticalAlign=middle;resizable=0;points=[];" vertex="1" connectable="0" parent="AFnphyHwQlmlIxG2m7yG-218">
          <mxGeometry x="-0.0084" relative="1" as="geometry">
            <mxPoint as="offset" />
          </mxGeometry>
        </mxCell>
        <mxCell id="AFnphyHwQlmlIxG2m7yG-213" value="S51" style="ellipse;whiteSpace=wrap;html=1;aspect=fixed;" vertex="1" parent="1">
          <mxGeometry x="390" y="790" width="30" height="30" as="geometry" />
        </mxCell>
        <mxCell id="AFnphyHwQlmlIxG2m7yG-219" value="" style="edgeStyle=orthogonalEdgeStyle;rounded=0;orthogonalLoop=1;jettySize=auto;html=1;" edge="1" parent="1" source="AFnphyHwQlmlIxG2m7yG-214">
          <mxGeometry relative="1" as="geometry">
            <mxPoint x="610" y="804.9999999999998" as="targetPoint" />
          </mxGeometry>
        </mxCell>
        <mxCell id="AFnphyHwQlmlIxG2m7yG-224" value="c" style="edgeLabel;html=1;align=center;verticalAlign=middle;resizable=0;points=[];" vertex="1" connectable="0" parent="AFnphyHwQlmlIxG2m7yG-219">
          <mxGeometry x="0.0381" relative="1" as="geometry">
            <mxPoint as="offset" />
          </mxGeometry>
        </mxCell>
        <mxCell id="AFnphyHwQlmlIxG2m7yG-214" value="S52" style="ellipse;whiteSpace=wrap;html=1;aspect=fixed;" vertex="1" parent="1">
          <mxGeometry x="500" y="790" width="30" height="30" as="geometry" />
        </mxCell>
        <mxCell id="AFnphyHwQlmlIxG2m7yG-229" value="" style="edgeStyle=orthogonalEdgeStyle;rounded=0;orthogonalLoop=1;jettySize=auto;html=1;" edge="1" parent="1" source="AFnphyHwQlmlIxG2m7yG-226" target="AFnphyHwQlmlIxG2m7yG-228">
          <mxGeometry relative="1" as="geometry" />
        </mxCell>
        <mxCell id="AFnphyHwQlmlIxG2m7yG-237" value="t" style="edgeLabel;html=1;align=center;verticalAlign=middle;resizable=0;points=[];" vertex="1" connectable="0" parent="AFnphyHwQlmlIxG2m7yG-229">
          <mxGeometry x="-0.0103" y="-1" relative="1" as="geometry">
            <mxPoint as="offset" />
          </mxGeometry>
        </mxCell>
        <mxCell id="AFnphyHwQlmlIxG2m7yG-226" value="S54" style="ellipse;whiteSpace=wrap;html=1;aspect=fixed;" vertex="1" parent="1">
          <mxGeometry x="230" y="840" width="30" height="30" as="geometry" />
        </mxCell>
        <mxCell id="AFnphyHwQlmlIxG2m7yG-231" value="" style="edgeStyle=orthogonalEdgeStyle;rounded=0;orthogonalLoop=1;jettySize=auto;html=1;" edge="1" parent="1" source="AFnphyHwQlmlIxG2m7yG-228" target="AFnphyHwQlmlIxG2m7yG-230">
          <mxGeometry relative="1" as="geometry" />
        </mxCell>
        <mxCell id="AFnphyHwQlmlIxG2m7yG-238" value="u" style="edgeLabel;html=1;align=center;verticalAlign=middle;resizable=0;points=[];" vertex="1" connectable="0" parent="AFnphyHwQlmlIxG2m7yG-231">
          <mxGeometry x="-0.0103" relative="1" as="geometry">
            <mxPoint as="offset" />
          </mxGeometry>
        </mxCell>
        <mxCell id="AFnphyHwQlmlIxG2m7yG-228" value="S55" style="ellipse;whiteSpace=wrap;html=1;aspect=fixed;" vertex="1" parent="1">
          <mxGeometry x="340" y="840" width="30" height="30" as="geometry" />
        </mxCell>
        <mxCell id="AFnphyHwQlmlIxG2m7yG-233" value="" style="edgeStyle=orthogonalEdgeStyle;rounded=0;orthogonalLoop=1;jettySize=auto;html=1;" edge="1" parent="1" source="AFnphyHwQlmlIxG2m7yG-230" target="AFnphyHwQlmlIxG2m7yG-232">
          <mxGeometry relative="1" as="geometry" />
        </mxCell>
        <mxCell id="AFnphyHwQlmlIxG2m7yG-239" value="r" style="edgeLabel;html=1;align=center;verticalAlign=middle;resizable=0;points=[];" vertex="1" connectable="0" parent="AFnphyHwQlmlIxG2m7yG-233">
          <mxGeometry x="0.0191" relative="1" as="geometry">
            <mxPoint as="offset" />
          </mxGeometry>
        </mxCell>
        <mxCell id="AFnphyHwQlmlIxG2m7yG-230" value="S56" style="ellipse;whiteSpace=wrap;html=1;aspect=fixed;" vertex="1" parent="1">
          <mxGeometry x="450" y="840" width="30" height="30" as="geometry" />
        </mxCell>
        <mxCell id="AFnphyHwQlmlIxG2m7yG-235" value="" style="edgeStyle=orthogonalEdgeStyle;rounded=0;orthogonalLoop=1;jettySize=auto;html=1;" edge="1" parent="1" source="AFnphyHwQlmlIxG2m7yG-232">
          <mxGeometry relative="1" as="geometry">
            <mxPoint x="670" y="854.9999999999998" as="targetPoint" />
          </mxGeometry>
        </mxCell>
        <mxCell id="AFnphyHwQlmlIxG2m7yG-240" value="n" style="edgeLabel;html=1;align=center;verticalAlign=middle;resizable=0;points=[];" vertex="1" connectable="0" parent="AFnphyHwQlmlIxG2m7yG-235">
          <mxGeometry x="0.0485" relative="1" as="geometry">
            <mxPoint as="offset" />
          </mxGeometry>
        </mxCell>
        <mxCell id="AFnphyHwQlmlIxG2m7yG-232" value="S57" style="ellipse;whiteSpace=wrap;html=1;aspect=fixed;" vertex="1" parent="1">
          <mxGeometry x="560" y="840" width="30" height="30" as="geometry" />
        </mxCell>
        <mxCell id="AFnphyHwQlmlIxG2m7yG-244" value="" style="edgeStyle=orthogonalEdgeStyle;rounded=0;orthogonalLoop=1;jettySize=auto;html=1;" edge="1" parent="1" source="AFnphyHwQlmlIxG2m7yG-241" target="AFnphyHwQlmlIxG2m7yG-243">
          <mxGeometry relative="1" as="geometry" />
        </mxCell>
        <mxCell id="AFnphyHwQlmlIxG2m7yG-248" value="u" style="edgeLabel;html=1;align=center;verticalAlign=middle;resizable=0;points=[];" vertex="1" connectable="0" parent="AFnphyHwQlmlIxG2m7yG-244">
          <mxGeometry x="-0.0544" y="-1" relative="1" as="geometry">
            <mxPoint as="offset" />
          </mxGeometry>
        </mxCell>
        <mxCell id="AFnphyHwQlmlIxG2m7yG-241" value="S59" style="ellipse;whiteSpace=wrap;html=1;aspect=fixed;" vertex="1" parent="1">
          <mxGeometry x="230" y="890" width="30" height="30" as="geometry" />
        </mxCell>
        <mxCell id="AFnphyHwQlmlIxG2m7yG-246" value="" style="edgeStyle=orthogonalEdgeStyle;rounded=0;orthogonalLoop=1;jettySize=auto;html=1;" edge="1" parent="1" source="AFnphyHwQlmlIxG2m7yG-243">
          <mxGeometry relative="1" as="geometry">
            <mxPoint x="450" y="904.9999999999998" as="targetPoint" />
          </mxGeometry>
        </mxCell>
        <mxCell id="AFnphyHwQlmlIxG2m7yG-249" value="e" style="edgeLabel;html=1;align=center;verticalAlign=middle;resizable=0;points=[];" vertex="1" connectable="0" parent="AFnphyHwQlmlIxG2m7yG-246">
          <mxGeometry x="0.0191" y="1" relative="1" as="geometry">
            <mxPoint as="offset" />
          </mxGeometry>
        </mxCell>
        <mxCell id="AFnphyHwQlmlIxG2m7yG-243" value="S60" style="ellipse;whiteSpace=wrap;html=1;aspect=fixed;" vertex="1" parent="1">
          <mxGeometry x="340" y="890" width="30" height="30" as="geometry" />
        </mxCell>
        <mxCell id="AFnphyHwQlmlIxG2m7yG-254" value="" style="edgeStyle=orthogonalEdgeStyle;rounded=0;orthogonalLoop=1;jettySize=auto;html=1;" edge="1" parent="1" source="AFnphyHwQlmlIxG2m7yG-251" target="AFnphyHwQlmlIxG2m7yG-253">
          <mxGeometry relative="1" as="geometry" />
        </mxCell>
        <mxCell id="AFnphyHwQlmlIxG2m7yG-258" value="i" style="edgeLabel;html=1;align=center;verticalAlign=middle;resizable=0;points=[];" vertex="1" connectable="0" parent="AFnphyHwQlmlIxG2m7yG-254">
          <mxGeometry x="0.0044" relative="1" as="geometry">
            <mxPoint as="offset" />
          </mxGeometry>
        </mxCell>
        <mxCell id="AFnphyHwQlmlIxG2m7yG-251" value="S62" style="ellipse;whiteSpace=wrap;html=1;aspect=fixed;" vertex="1" parent="1">
          <mxGeometry x="230" y="940" width="30" height="30" as="geometry" />
        </mxCell>
        <mxCell id="AFnphyHwQlmlIxG2m7yG-256" value="" style="edgeStyle=orthogonalEdgeStyle;rounded=0;orthogonalLoop=1;jettySize=auto;html=1;" edge="1" parent="1" source="AFnphyHwQlmlIxG2m7yG-253">
          <mxGeometry relative="1" as="geometry">
            <mxPoint x="450" y="954.9999999999998" as="targetPoint" />
          </mxGeometry>
        </mxCell>
        <mxCell id="AFnphyHwQlmlIxG2m7yG-259" value="d" style="edgeLabel;html=1;align=center;verticalAlign=middle;resizable=0;points=[];" vertex="1" connectable="0" parent="AFnphyHwQlmlIxG2m7yG-256">
          <mxGeometry x="-0.0103" y="-1" relative="1" as="geometry">
            <mxPoint as="offset" />
          </mxGeometry>
        </mxCell>
        <mxCell id="AFnphyHwQlmlIxG2m7yG-253" value="S63" style="ellipse;whiteSpace=wrap;html=1;aspect=fixed;" vertex="1" parent="1">
          <mxGeometry x="340" y="940" width="30" height="30" as="geometry" />
        </mxCell>
        <mxCell id="AFnphyHwQlmlIxG2m7yG-262" value="S1" style="ellipse;whiteSpace=wrap;html=1;aspect=fixed;" vertex="1" parent="1">
          <mxGeometry x="560" y="135" width="40" height="40" as="geometry" />
        </mxCell>
        <mxCell id="AFnphyHwQlmlIxG2m7yG-263" value="S1" style="ellipse;whiteSpace=wrap;html=1;aspect=fixed;" vertex="1" parent="1">
          <mxGeometry x="565" y="140" width="30" height="30" as="geometry" />
        </mxCell>
        <mxCell id="AFnphyHwQlmlIxG2m7yG-264" value="S1" style="ellipse;whiteSpace=wrap;html=1;aspect=fixed;" vertex="1" parent="1">
          <mxGeometry x="390" y="185" width="40" height="40" as="geometry" />
        </mxCell>
        <mxCell id="AFnphyHwQlmlIxG2m7yG-265" value="S1" style="ellipse;whiteSpace=wrap;html=1;aspect=fixed;" vertex="1" parent="1">
          <mxGeometry x="395" y="190" width="30" height="30" as="geometry" />
        </mxCell>
        <mxCell id="AFnphyHwQlmlIxG2m7yG-266" value="S1" style="ellipse;whiteSpace=wrap;html=1;aspect=fixed;" vertex="1" parent="1">
          <mxGeometry x="560" y="235" width="40" height="40" as="geometry" />
        </mxCell>
        <mxCell id="AFnphyHwQlmlIxG2m7yG-267" value="S1" style="ellipse;whiteSpace=wrap;html=1;aspect=fixed;" vertex="1" parent="1">
          <mxGeometry x="565" y="240" width="30" height="30" as="geometry" />
        </mxCell>
        <mxCell id="AFnphyHwQlmlIxG2m7yG-268" value="S1" style="ellipse;whiteSpace=wrap;html=1;aspect=fixed;" vertex="1" parent="1">
          <mxGeometry x="390" y="285" width="40" height="40" as="geometry" />
        </mxCell>
        <mxCell id="AFnphyHwQlmlIxG2m7yG-269" value="S1" style="ellipse;whiteSpace=wrap;html=1;aspect=fixed;" vertex="1" parent="1">
          <mxGeometry x="395" y="290" width="30" height="30" as="geometry" />
        </mxCell>
        <mxCell id="AFnphyHwQlmlIxG2m7yG-270" value="S1" style="ellipse;whiteSpace=wrap;html=1;aspect=fixed;" vertex="1" parent="1">
          <mxGeometry x="390" y="335" width="40" height="40" as="geometry" />
        </mxCell>
        <mxCell id="AFnphyHwQlmlIxG2m7yG-271" value="S1" style="ellipse;whiteSpace=wrap;html=1;aspect=fixed;" vertex="1" parent="1">
          <mxGeometry x="395" y="340" width="30" height="30" as="geometry" />
        </mxCell>
        <mxCell id="AFnphyHwQlmlIxG2m7yG-272" value="S1" style="ellipse;whiteSpace=wrap;html=1;aspect=fixed;" vertex="1" parent="1">
          <mxGeometry x="670" y="385" width="40" height="40" as="geometry" />
        </mxCell>
        <mxCell id="AFnphyHwQlmlIxG2m7yG-273" value="S1" style="ellipse;whiteSpace=wrap;html=1;aspect=fixed;" vertex="1" parent="1">
          <mxGeometry x="675" y="390" width="30" height="30" as="geometry" />
        </mxCell>
        <mxCell id="AFnphyHwQlmlIxG2m7yG-274" value="S1" style="ellipse;whiteSpace=wrap;html=1;aspect=fixed;" vertex="1" parent="1">
          <mxGeometry x="610" y="435" width="40" height="40" as="geometry" />
        </mxCell>
        <mxCell id="AFnphyHwQlmlIxG2m7yG-275" value="S1" style="ellipse;whiteSpace=wrap;html=1;aspect=fixed;" vertex="1" parent="1">
          <mxGeometry x="615" y="440" width="30" height="30" as="geometry" />
        </mxCell>
        <mxCell id="AFnphyHwQlmlIxG2m7yG-276" value="S1" style="ellipse;whiteSpace=wrap;html=1;aspect=fixed;" vertex="1" parent="1">
          <mxGeometry x="450" y="485" width="40" height="40" as="geometry" />
        </mxCell>
        <mxCell id="AFnphyHwQlmlIxG2m7yG-277" value="S1" style="ellipse;whiteSpace=wrap;html=1;aspect=fixed;" vertex="1" parent="1">
          <mxGeometry x="455" y="490" width="30" height="30" as="geometry" />
        </mxCell>
        <mxCell id="AFnphyHwQlmlIxG2m7yG-278" value="S1" style="ellipse;whiteSpace=wrap;html=1;aspect=fixed;" vertex="1" parent="1">
          <mxGeometry x="560" y="535" width="40" height="40" as="geometry" />
        </mxCell>
        <mxCell id="AFnphyHwQlmlIxG2m7yG-279" value="S1" style="ellipse;whiteSpace=wrap;html=1;aspect=fixed;" vertex="1" parent="1">
          <mxGeometry x="565" y="540" width="30" height="30" as="geometry" />
        </mxCell>
        <mxCell id="AFnphyHwQlmlIxG2m7yG-280" value="S1" style="ellipse;whiteSpace=wrap;html=1;aspect=fixed;" vertex="1" parent="1">
          <mxGeometry x="280" y="595" width="40" height="40" as="geometry" />
        </mxCell>
        <mxCell id="AFnphyHwQlmlIxG2m7yG-281" value="S1" style="ellipse;whiteSpace=wrap;html=1;aspect=fixed;" vertex="1" parent="1">
          <mxGeometry x="285" y="600" width="30" height="30" as="geometry" />
        </mxCell>
        <mxCell id="AFnphyHwQlmlIxG2m7yG-282" value="S1" style="ellipse;whiteSpace=wrap;html=1;aspect=fixed;" vertex="1" parent="1">
          <mxGeometry x="340" y="645" width="40" height="40" as="geometry" />
        </mxCell>
        <mxCell id="AFnphyHwQlmlIxG2m7yG-283" value="S1" style="ellipse;whiteSpace=wrap;html=1;aspect=fixed;" vertex="1" parent="1">
          <mxGeometry x="345" y="650" width="30" height="30" as="geometry" />
        </mxCell>
        <mxCell id="AFnphyHwQlmlIxG2m7yG-285" value="S1" style="ellipse;whiteSpace=wrap;html=1;aspect=fixed;" vertex="1" parent="1">
          <mxGeometry x="170" y="685" width="40" height="40" as="geometry" />
        </mxCell>
        <mxCell id="AFnphyHwQlmlIxG2m7yG-286" value="S1" style="ellipse;whiteSpace=wrap;html=1;aspect=fixed;" vertex="1" parent="1">
          <mxGeometry x="175" y="690" width="30" height="30" as="geometry" />
        </mxCell>
        <mxCell id="AFnphyHwQlmlIxG2m7yG-287" value="S1" style="ellipse;whiteSpace=wrap;html=1;aspect=fixed;" vertex="1" parent="1">
          <mxGeometry x="780" y="735" width="40" height="40" as="geometry" />
        </mxCell>
        <mxCell id="AFnphyHwQlmlIxG2m7yG-288" value="S1" style="ellipse;whiteSpace=wrap;html=1;aspect=fixed;" vertex="1" parent="1">
          <mxGeometry x="785" y="740" width="30" height="30" as="geometry" />
        </mxCell>
        <mxCell id="AFnphyHwQlmlIxG2m7yG-289" value="S1" style="ellipse;whiteSpace=wrap;html=1;aspect=fixed;" vertex="1" parent="1">
          <mxGeometry x="610" y="785" width="40" height="40" as="geometry" />
        </mxCell>
        <mxCell id="AFnphyHwQlmlIxG2m7yG-290" value="S1" style="ellipse;whiteSpace=wrap;html=1;aspect=fixed;" vertex="1" parent="1">
          <mxGeometry x="615" y="790" width="30" height="30" as="geometry" />
        </mxCell>
        <mxCell id="AFnphyHwQlmlIxG2m7yG-291" value="S1" style="ellipse;whiteSpace=wrap;html=1;aspect=fixed;" vertex="1" parent="1">
          <mxGeometry x="670" y="835" width="40" height="40" as="geometry" />
        </mxCell>
        <mxCell id="AFnphyHwQlmlIxG2m7yG-292" value="S1" style="ellipse;whiteSpace=wrap;html=1;aspect=fixed;" vertex="1" parent="1">
          <mxGeometry x="675" y="840" width="30" height="30" as="geometry" />
        </mxCell>
        <mxCell id="AFnphyHwQlmlIxG2m7yG-293" value="S1" style="ellipse;whiteSpace=wrap;html=1;aspect=fixed;" vertex="1" parent="1">
          <mxGeometry x="450" y="885" width="40" height="40" as="geometry" />
        </mxCell>
        <mxCell id="AFnphyHwQlmlIxG2m7yG-294" value="S1" style="ellipse;whiteSpace=wrap;html=1;aspect=fixed;" vertex="1" parent="1">
          <mxGeometry x="455" y="890" width="30" height="30" as="geometry" />
        </mxCell>
        <mxCell id="AFnphyHwQlmlIxG2m7yG-295" value="S1" style="ellipse;whiteSpace=wrap;html=1;aspect=fixed;" vertex="1" parent="1">
          <mxGeometry x="450" y="935" width="40" height="40" as="geometry" />
        </mxCell>
        <mxCell id="AFnphyHwQlmlIxG2m7yG-296" value="S1" style="ellipse;whiteSpace=wrap;html=1;aspect=fixed;" vertex="1" parent="1">
          <mxGeometry x="455" y="940" width="30" height="30" as="geometry" />
        </mxCell>
      </root>
    </mxGraphModel>
  </diagram>
</mxfile>
